<?xml version="1.0" standalone="no"?>
<!DOCTYPE svg PUBLIC "-//W3C//DTD SVG 20010904//EN"
 "http://www.w3.org/TR/2001/REC-SVG-20010904/DTD/svg10.dtd">
<svg version="1.0" xmlns="http://www.w3.org/2000/svg"
 width="1280.000000pt" height="1232.000000pt" viewBox="0 0 1280.000000 1232.000000"
 preserveAspectRatio="xMidYMid meet">
<circle cx="640" cy="616" r="640" fill="#ffffff"/>
<g transform="translate(140.8,135.5) scale(0.78)">
<g transform="translate(0.000000,1232.000000) scale(0.100000,-0.100000)"
fill="#000000" stroke="none">
<path d="M10275 12308 c-377 -50 -461 -71 -647 -164 -133 -67 -436 -268 -544
-362 -147 -127 -311 -332 -483 -599 -267 -416 -418 -797 -515 -1299 -51 -263
-55 -392 -30 -937 18 -395 18 -400 -35 -896 -47 -437 -73 -573 -137 -730 -61
-148 -138 -244 -258 -322 -120 -79 -132 -81 -501 -90 -344 -8 -492 -17 -885
-50 -460 -38 -571 -58 -1032 -190 -704 -200 -887 -237 -1353 -269 -170 -12
-355 -42 -548 -90 -84 -20 -154 -46 -242 -89 -158 -77 -194 -86 -310 -70 -147
19 -566 -3 -695 -36 -33 -9 -138 -49 -232 -89 -178 -76 -502 -184 -760 -256
-81 -22 -169 -47 -195 -56 -85 -29 -186 -88 -238 -139 -47 -47 -105 -138 -95
-148 6 -5 229 -45 425 -76 161 -26 235 -26 495 -1 201 20 411 25 459 11 39
-10 36 -30 -6 -47 -74 -32 -220 -54 -453 -69 -456 -30 -866 -81 -1118 -141
-122 -28 -145 -39 -201 -96 -40 -40 -121 -149 -121 -163 0 -3 21 -16 48 -28
38 -17 74 -22 187 -27 244 -11 244 -28 2 -199 -130 -92 -145 -107 -129 -123
18 -18 139 12 286 71 135 54 156 59 156 37 0 -7 -57 -101 -127 -208 -71 -106
-137 -213 -148 -237 -19 -42 -19 -44 0 -57 24 -18 42 -13 220 57 83 32 224 87
315 121 l165 63 185 -1 c246 -1 331 -16 515 -94 247 -105 378 -192 530 -352
140 -147 195 -233 310 -488 63 -141 218 -403 321 -541 100 -135 319 -353 464
-460 229 -170 572 -392 765 -494 61 -33 113 -63 117 -69 16 -23 20 -145 9
-239 -13 -104 -86 -405 -121 -499 -11 -30 -52 -109 -92 -174 -89 -148 -108
-197 -108 -276 0 -68 31 -142 86 -206 l30 -35 57 51 c77 70 123 92 192 92 55
0 56 0 83 -46 44 -76 95 -141 135 -172 66 -53 234 -111 365 -128 152 -18 474
-18 656 1 284 30 321 38 445 99 116 57 154 66 184 44 9 -7 31 -56 50 -108 40
-113 32 -108 254 -145 283 -49 705 -80 958 -72 281 9 576 27 617 37 20 6 63
28 97 51 109 73 162 76 280 19 82 -40 106 -45 149 -34 18 5 22 13 22 43 0 44
-22 93 -83 189 -50 77 -78 99 -171 135 -44 16 -77 39 -127 89 -97 96 -145 110
-381 109 -123 -1 -199 -6 -250 -17 -40 -9 -91 -20 -113 -25 -64 -13 -194 -10
-275 7 -114 23 -130 43 -164 204 -22 100 -58 161 -165 272 l-88 93 -7 65 c-4
36 0 162 9 280 17 243 19 415 5 509 -8 55 -6 69 11 102 24 47 35 55 179 119
160 73 216 107 450 279 521 383 554 400 1185 627 518 186 714 297 984 559 228
222 386 433 502 670 181 371 225 743 144 1219 -37 220 -33 206 -399 1416 -235
778 -294 1004 -330 1252 -70 475 -36 992 96 1442 39 135 94 223 212 340 127
126 185 147 506 186 255 31 329 52 645 188 132 56 146 60 240 65 55 3 190 20
300 38 270 43 400 43 703 0 245 -36 310 -34 414 11 63 27 71 43 56 109 -12 50
-11 52 12 71 85 66 112 93 130 128 27 52 25 76 -9 146 -56 114 -125 161 -521
359 -345 172 -381 193 -520 298 -185 140 -205 165 -234 296 -9 41 -25 89 -37
108 -25 40 -177 151 -268 196 -63 31 -71 32 -181 31 -63 0 -131 -2 -150 -3
-19 -2 -98 6 -175 18 -146 22 -287 25 -410 9z m-4234 -10560 c7 -107 22 -159
86 -303 77 -171 78 -186 38 -510 -19 -153 -39 -283 -44 -288 -7 -7 -30 -1 -68
16 -95 42 -171 60 -222 53 -69 -9 -386 -6 -463 4 -95 14 -159 41 -302 126
l-126 76 0 72 c0 61 -5 82 -35 145 -48 101 -52 138 -25 262 17 79 23 140 24
251 0 90 5 148 11 149 23 3 46 -6 165 -62 69 -32 149 -63 179 -69 124 -23 250
-6 435 62 61 22 158 57 216 79 58 21 110 37 115 35 6 -1 13 -46 16 -98z"/>
</g>
</g>
</svg>
